<svg
   version="1.1"
   id="svg2"
   xml:space="preserve"
   width="30"
   height="30"
   viewBox="0 0 2800.2766 2800.2756"
   sodipodi:docname="52b054cc22125699db79e882d2d172c9.eps"
   xmlns:inkscape="http://www.inkscape.org/namespaces/inkscape"
   xmlns:sodipodi="http://sodipodi.sourceforge.net/DTD/sodipodi-0.dtd"
   xmlns="http://www.w3.org/2000/svg"
   xmlns:svg="http://www.w3.org/2000/svg"><defs
     id="defs6" /><sodipodi:namedview
     id="namedview4"
     pagecolor="#ffffff"
     bordercolor="#666666"
     borderopacity="1.0"
     inkscape:pageshadow="2"
     inkscape:pageopacity="0.0"
     inkscape:pagecheckerboard="0" /><g
     id="g8"
     inkscape:groupmode="layer"
     inkscape:label="ink_ext_XXXXXX"
     transform="matrix(1.3333333,0,0,-1.3333333,-8.593584e-6,2800.2766)"><g
       id="g10"
       transform="scale(0.1)"><g
         id="g12"
         transform="scale(1.28841)"><path
           d="M 0.77009,0.776153 H 16300 V 16300 H 0.77009 V 0.776153"
           style="fill:#fefefe;fill-opacity:1;fill-rule:evenodd;stroke:none"
           id="path14" /></g><g
         id="g16"
         transform="scale(1.28841)"><path
           d="M 0.77009,0.776153 H 16300 V 16300 H 0.77009 Z"
           style="fill:none;stroke:#eeeeee;stroke-width:1.54008;stroke-linecap:butt;stroke-linejoin:miter;stroke-miterlimit:10;stroke-dasharray:none;stroke-opacity:1"
           id="path18" /></g><path
         d="M 13721.7,10846.3 12785.5,8152 h 1879.3 z"
         style="fill:#67696d;fill-opacity:1;fill-rule:evenodd;stroke:none"
         id="path20" /><path
         d="m 12214,10127.4 902.9,2722.7 H 11394 Z"
         style="fill:#67696d;fill-opacity:1;fill-rule:evenodd;stroke:none"
         id="path22" /><path
         d="m 14361.6,12850.1 903,-2722.7 820,2722.7 z"
         style="fill:#67696d;fill-opacity:1;fill-rule:evenodd;stroke:none"
         id="path24" /><g
         id="g26"
         transform="scale(1.03987)"><path
           d="M 16300,10807.4 15314.9,7839.48 H 16300 V 10807.4"
           style="fill:#67696d;fill-opacity:1;fill-rule:evenodd;stroke:none"
           id="path28" /></g><path
         d="m 10501,8152 h 1024.4 L 10501,11238.2 9923.53,12850.1 H 8422.32 c 317.01,-108.7 599.29,-266.5 854.29,-471.3 l -677.18,-956.5 c -446.5,314.5 -935.15,481.7 -1368.25,481.7 -327.92,0 -488.67,-139.4 -488.67,-314.1 v -13.8 c 0,-223.3 167.69,-321 844.87,-474.8 1123.67,-244.1 1822.18,-607.2 1822.18,-1522 v -13.9 c 0,-677.2 -363.14,-1167.9 -967.4,-1413.4 z M 4052.16,12850.1 V 8152 h 2213.6 c -419.2,134.4 -802.2,345.3 -1121.68,631.5 l 754.07,900.9 c 481.71,-384 1018.99,-586.4 1584.55,-586.4 363.15,0 558.61,125.5 558.61,334.9 v 13.9 c 0,202.4 -160.74,314 -824.02,467.8 -1040.33,237.2 -1843.02,530.4 -1843.02,1535.9 v 13.9 c 0,625.6 341.81,1131.7 938.13,1385.7 H 4052.16"
         style="fill:#67696d;fill-opacity:1;fill-rule:evenodd;stroke:none"
         id="path30" /></g></g></svg>
