<?xml version="1.0" encoding="UTF-8" standalone="no"?>
<!-- Created with Inkscape (http://www.inkscape.org/) -->

<svg
   version="1.1"
   id="svg2"
   xml:space="preserve"
   width="2799.4878"
   height="2799.4878"
   viewBox="0 0 2799.4878 2799.4878"
   sodipodi:docname="51dcfba9490cf614439a25de3cf4af25.eps"
   xmlns:inkscape="http://www.inkscape.org/namespaces/inkscape"
   xmlns:sodipodi="http://sodipodi.sourceforge.net/DTD/sodipodi-0.dtd"
   xmlns="http://www.w3.org/2000/svg"
   xmlns:svg="http://www.w3.org/2000/svg"><defs
     id="defs6" /><sodipodi:namedview
     id="namedview4"
     pagecolor="#ffffff"
     bordercolor="#666666"
     borderopacity="1.0"
     inkscape:pageshadow="2"
     inkscape:pageopacity="0.0"
     inkscape:pagecheckerboard="0" /><g
     id="g8"
     inkscape:groupmode="layer"
     inkscape:label="ink_ext_XXXXXX"
     transform="matrix(1.3333333,0,0,-1.3333333,0,2799.4878)"><g
       id="g10"
       transform="scale(0.1)"><g
         id="g12"
         transform="scale(1.2881)"><path
           d="M 0,0 H 16300.1 V 16300.1 H 0 V 0"
           style="fill:#060202;fill-opacity:1;fill-rule:evenodd;stroke:none"
           id="path14" /></g><path
         d="m 11473.9,8619.1 h -561.6 l -428,3761.8 h 600.8 l 133.5,-1437.2 149.2,1437.2 h 565.5 l 180.6,-1425.4 94.3,1425.4 h 640 l -428,-3761.8 h -565.5 l -188.5,1468.6 -192.3,-1468.6"
         style="fill:#fefefe;fill-opacity:1;fill-rule:nonzero;stroke:none"
         id="path16" /><path
         d="M 10244.8,8619.1 H 8096.91 v 1170.2 h 797.13 v -455.5 h 494.71 v 596.8 l -1291.84,966 v 1484.3 h 2151.79 v -314.1 h -3.9 v -805 h -777.52 v 400.5 h -27.46 -196.36 -321.96 v -490.8 L 10244.8,10182 V 8619.1"
         style="fill:#fefefe;fill-opacity:1;fill-rule:nonzero;stroke:none"
         id="path18" /><path
         d="m 7138.8,10500 c 0,2096.8 1700.25,3797.2 3797.1,3797.2 1484.3,0 2772.2,-856.1 3396.6,-2100.8 -647.9,1429.2 -2089,2426.7 -3757.9,2426.7 -2277.48,0 -4123.02,-1845.6 -4123.02,-4123.1 0,-2277.5 1845.54,-4123 4123.02,-4123 1668.9,0 3110,993.4 3757.9,2426.7 -624.4,-1244.8 -1912.3,-2100.8 -3396.6,-2100.8 -2096.85,0 -3797.1,1700.2 -3797.1,3797.1 v 0"
         style="fill:#fefefe;fill-opacity:1;fill-rule:evenodd;stroke:none"
         id="path20" /><path
         d="m 13943.7,10500 c 0,1837.7 -1488.2,3329.8 -3329.8,3329.8 -1303.68,0 -2430.62,-749.9 -2976.47,-1841.6 565.47,1252.6 1829.85,2124.4 3294.47,2124.4 1994.9,0 3612.7,-1617.8 3612.7,-3612.6 0,-1998.7 -1617.8,-3616.5 -3612.7,-3616.5 -1464.62,0 -2729,875.6 -3294.47,2128.3 545.85,-1091.6 1672.79,-1841.7 2976.47,-1841.7 1841.6,0 3329.8,1492.2 3329.8,3329.9 v 0"
         style="fill:#fefefe;fill-opacity:1;fill-rule:evenodd;stroke:none"
         id="path22" /></g></g></svg>
